<?xml version="1.0" encoding="UTF-8"?>
<svg xmlns="http://www.w3.org/2000/svg" id="Ebene_1" data-name="Ebene 1" viewBox="0 0 297.64 297.64">
  <defs>
    <style>
      .cls-1 {
        fill: #1a9dd9;
      }

      .cls-1, .cls-2 {
        stroke-width: 0px;
      }

      .cls-2 {
        fill: #fff;
      }
    </style>
  </defs>
  <path class="cls-1" d="m51.7,145.65c-.12,0-.25,0-.37.02-.9.1-1.7.54-2.27,1.24-.56.7-.82,1.59-.72,2.48,1.89,17.21,14.92,30.18,30.32,30.18,3.01,0,5.99-.5,8.86-1.47.85-.29,1.54-.9,1.94-1.71.4-.81.46-1.73.17-2.58-.29-.85-.9-1.54-1.71-1.94-.81-.4-1.73-.46-2.58-.17-2.16.74-4.4,1.11-6.67,1.11-11.94,0-22.09-10.39-23.6-24.16-.19-1.72-1.63-3.01-3.36-3.01Z"></path>
  <path class="cls-1" d="m102.26,148.66c-.2,1.85,1.14,3.53,2.99,3.73,1.86.2,3.53-1.14,3.73-2.99.15-1.4.23-2.83.23-4.25,0-18.99-13.71-34.43-30.55-34.43-4.64,0-9.1,1.15-13.26,3.41-.79.43-1.37,1.15-1.62,2.01-.26.87-.16,1.78.27,2.57.89,1.64,2.95,2.24,4.59,1.35,3.15-1.72,6.53-2.59,10.03-2.59,13.12,0,23.79,12.41,23.79,27.67,0,1.17-.06,2.36-.19,3.51h0Z"></path>
  <path class="cls-2" d="m33.36,130.12c-1.59,0-2.94,1.08-3.3,2.63-.91,3.96-1.37,8.13-1.37,12.4,0,29.69,22.41,53.84,49.96,53.84h139.73c27.55,0,49.96-24.15,49.96-53.84,0-8.54-1.82-16.74-5.42-24.35-.12-.33-.23-.57-.36-.77-8.74-17.73-25.66-28.72-44.17-28.72H78.66c-15.44,0-29.78,7.52-39.34,20.64-.74,1.01-.85,2.34-.31,3.46l7.09,14.71h-12.74Zm185.03,62.1h-115.46l1.42-.92c4.73-3.07,8.95-6.95,12.53-11.53l.15-.19h23.74c1.86,0,3.38-1.52,3.38-3.38s-1.52-3.38-3.38-3.38h-19.27l.4-.74c4.4-8.17,6.73-17.49,6.73-26.93s-2.33-18.76-6.73-26.93l-.4-.74h11.51c1.86,0,3.38-1.52,3.38-3.38s-1.52-3.38-3.38-3.38h-15.97l-.15-.19c-3.58-4.58-7.8-8.46-12.53-11.53l-1.42-.92h115.46c13.83,0,26.94,7.34,35.06,19.63l.51.78h-12.29c-1.86,0-3.38,1.52-3.38,3.38s1.52,3.38,3.38,3.38h15.84l.13.31c2.61,6.19,3.94,12.78,3.94,19.6,0,3.98-.46,7.94-1.36,11.76l-.09.38h-30.1c-1.86,0-3.38,1.52-3.38,3.38s1.52,3.38,3.38,3.38h27.91l-.29.69c-7.04,16.69-22.45,27.48-39.26,27.48Zm-139.73,0c-23.82,0-43.2-21.12-43.2-47.08,0-2.67.2-5.31.61-7.84l.07-.42h15.35c1.17,0,2.24-.59,2.86-1.58.62-.99.69-2.21.18-3.27l-8.53-17.7.2-.25c8.21-10.18,20.04-16.02,32.46-16.02,23.82,0,43.2,21.12,43.2,47.08,0,9.24-2.47,18.19-7.15,25.9l-.27.45-14.48-9.74c-1.55-1.04-3.65-.63-4.69.92-1.04,1.55-.63,3.65.92,4.69l14.28,9.61-.37.43c-8.27,9.56-19.43,14.83-31.43,14.83Z"></path>
  <path class="cls-2" d="m167.93,118.48c-1.86,0-3.38,1.52-3.38,3.38s1.52,3.38,3.38,3.38h42.7c1.86,0,3.38-1.52,3.38-3.38s-1.52-3.38-3.38-3.38h-42.7Z"></path>
  <path class="cls-2" d="m156.29,149.53c-1.86,0-3.38,1.52-3.38,3.38s1.52,3.38,3.38,3.38h34.93c1.86,0,3.38-1.52,3.38-3.38s-1.52-3.38-3.38-3.38h-34.93Z"></path>
  <path class="cls-1" d="m70.89,141.77c-1.86,0-3.38,1.52-3.38,3.38,0,8.43,4.9,15.03,11.14,15.03s11.14-6.6,11.14-15.03c0-5.17-1.89-9.9-5.05-12.64-.68-.59-1.55-.88-2.45-.82-.9.06-1.72.47-2.32,1.16-.59.68-.88,1.55-.82,2.45.06.9.48,1.72,1.16,2.31,1.25,1.09,2.72,3.71,2.72,7.53,0,5.32-2.59,8.26-4.38,8.26s-4.38-2.94-4.38-8.26c0-1.86-1.52-3.38-3.38-3.38Z"></path>
</svg>
