<?xml version="1.0" encoding="UTF-8"?>
<svg xmlns="http://www.w3.org/2000/svg" id="Ebene_1" data-name="Ebene 1" viewBox="0 0 297.64 297.64">
  <defs>
    <style>
      .cls-1 {
        fill: #1a9dd9;
      }

      .cls-1, .cls-2 {
        stroke-width: 0px;
      }

      .cls-2 {
        fill: #fff;
      }
    </style>
  </defs>
  <g>
    <path class="cls-2" d="m148.28,160.56c-24.01,0-43.55-19.53-43.55-43.55s19.53-43.55,43.55-43.55,43.55,19.53,43.55,43.55-19.53,43.55-43.55,43.55Zm0-79.83c-20.01,0-36.29,16.28-36.29,36.29s16.28,36.29,36.29,36.29,36.29-16.28,36.29-36.29-16.28-36.29-36.29-36.29Z"></path>
    <path class="cls-2" d="m148.28,58.96c-2,0-3.63-1.62-3.63-3.63v-29.03c0-2,1.62-3.63,3.63-3.63s3.63,1.62,3.63,3.63v29.03c0,2-1.62,3.63-3.63,3.63Z"></path>
    <path class="cls-2" d="m148.28,211.37c-2,0-3.63-1.62-3.63-3.63v-29.03c0-2,1.62-3.63,3.63-3.63s3.63,1.62,3.63,3.63v29.03c0,2-1.62,3.63-3.63,3.63Z"></path>
    <path class="cls-2" d="m104.66,77.02c-.93,0-1.86-.35-2.57-1.06l-20.53-20.53c-1.42-1.42-1.42-3.71,0-5.13,1.42-1.42,3.72-1.42,5.13,0l20.53,20.53c1.42,1.42,1.42,3.71,0,5.13-.71.71-1.64,1.06-2.57,1.06Z"></path>
    <path class="cls-2" d="m212.42,184.8c-.93,0-1.86-.35-2.57-1.06l-20.53-20.53c-1.42-1.42-1.42-3.71,0-5.13,1.42-1.42,3.72-1.42,5.13,0l20.53,20.53c1.42,1.42,1.42,3.71,0,5.13-.71.71-1.64,1.06-2.57,1.06Z"></path>
    <path class="cls-2" d="m86.59,120.65h-29.02c-2,0-3.63-1.62-3.63-3.63s1.62-3.63,3.63-3.63h29.02c2,0,3.63,1.62,3.63,3.63s-1.62,3.63-3.63,3.63Z"></path>
    <path class="cls-2" d="m239,120.65h-29.02c-2,0-3.63-1.63-3.63-3.64s1.62-3.63,3.63-3.63h29.02c2,0,3.63,1.63,3.63,3.64s-1.62,3.63-3.63,3.63Z"></path>
    <path class="cls-2" d="m84.13,184.8c-.93,0-1.86-.35-2.57-1.06-1.42-1.42-1.42-3.72,0-5.13l20.53-20.52c1.42-1.42,3.72-1.42,5.13,0,1.42,1.42,1.42,3.72,0,5.13l-20.53,20.52c-.71.71-1.64,1.06-2.57,1.06Z"></path>
    <path class="cls-2" d="m191.9,77.03c-.93,0-1.86-.35-2.57-1.06-1.42-1.42-1.42-3.72,0-5.13l20.53-20.52c1.42-1.42,3.72-1.42,5.13,0,1.42,1.42,1.42,3.72,0,5.13l-20.53,20.52c-.71.71-1.64,1.06-2.57,1.06Z"></path>
  </g>
  <path class="cls-1" d="m238.7,233.55H57.86c-1.66,0-3,1.34-3,3v24.76c0,1.66,1.34,3,3,3h180.84c1.66,0,3-1.34,3-3v-24.76c0-1.66-1.34-3-3-3Zm-177.84,6h54.28v18.76h-54.28v-18.76Zm60.28,0h54.28v18.76h-54.28v-18.76Zm114.56,18.76h-54.28v-18.76h54.28v18.76Z"></path>
</svg>
