<?xml version="1.0" encoding="UTF-8"?>
<svg xmlns="http://www.w3.org/2000/svg" id="Ebene_1" data-name="Ebene 1" viewBox="0 0 297.64 297.64">
  <defs>
    <style>
      .cls-1 {
        fill: #1a9dd9;
      }

      .cls-1, .cls-2 {
        stroke-width: 0px;
      }

      .cls-2 {
        fill: #fff;
      }
    </style>
  </defs>
  <path class="cls-1" d="m65.48,151.05c-.66,0-1.33-.2-1.9-.61-1.16-.83-1.63-2.3-1.19-3.66,7.32-22.09,21.03-41.07,39.66-54.87,18.5-13.71,40.47-21.3,63.54-21.96v-31.25c0-1.27.74-2.42,1.89-2.95,1.15-.52,2.52-.33,3.47.5l63.17,54.55c.71.62,1.12,1.51,1.12,2.46s-.41,1.84-1.12,2.46l-63.17,54.55c-.95.82-2.34,1.01-3.47.5-1.15-.53-1.9-1.69-1.9-2.95v-31.18c-35.19.69-70.04,12.68-98.17,33.77-.58.44-1.26.65-1.95.65Zm103.37-40.95c1.79,0,3.25,1.46,3.25,3.25v27.36l54.95-47.46-54.95-47.46v27.36c0,1.79-1.46,3.25-3.25,3.25-41.82,0-79.55,24.53-96.49,62.61,28.42-18.65,62.63-28.91,96.49-28.91Z"></path>
  <path class="cls-2" d="m232.01,140.87c-.79,0-1.54.25-2.17.72-27.97,20.97-62.59,32.92-97.57,33.69v-30.79c0-1.41-.83-2.7-2.11-3.29-.48-.22-.98-.33-1.51-.33-.87,0-1.71.31-2.37.88l-63.17,54.55c-.8.69-1.25,1.69-1.25,2.74s.46,2.05,1.25,2.74l63.17,54.55c.66.57,1.5.88,2.37.88.52,0,1.03-.11,1.51-.33,1.29-.59,2.11-1.88,2.11-3.29v-30.89c23.01-.73,44.92-8.34,63.39-22.02,18.69-13.85,32.45-32.89,39.8-55.06.5-1.51-.03-3.15-1.32-4.08-.62-.45-1.35-.68-2.11-.68h0Zm-160.99,58.18l54.01-46.64v26.54c0,2,1.62,3.62,3.62,3.62,33.5,0,67.35-10.02,95.62-28.27-17.12,37.28-54.38,61.23-95.62,61.23-2,0-3.62,1.62-3.62,3.62v26.54l-54.01-46.64h0Z"></path>
</svg>
