<?xml version="1.0" encoding="UTF-8"?>
<svg xmlns="http://www.w3.org/2000/svg" id="Ebene_1" data-name="Ebene 1" viewBox="0 0 297.64 297.64">
  <defs>
    <style>
      .cls-1 {
        fill: #1a9dd9;
      }

      .cls-1, .cls-2 {
        stroke-width: 0px;
      }

      .cls-2 {
        fill: #fff;
      }
    </style>
  </defs>
  <path class="cls-1" d="m97.73,171.51c-.14,0-.28,0-.42,0-24.43,0-44.31-20.01-44.31-44.61,0-7.5,1.9-14.95,5.48-21.53.02-.03.04-.07.06-.11l35.53-64.72c.65-1.18,1.89-1.91,3.24-1.91s2.59.73,3.24,1.92l35.51,64.71s.05.08.07.12c1.51,2.77,2.72,5.69,3.61,8.71l-6.03,6.68c-.68-4.12-2.03-8.11-4.02-11.77-.02-.03-.04-.07-.06-.1l-32.32-58.9-32.33,58.9s-.03.06-.05.09c-2.97,5.48-4.54,11.67-4.54,17.91,0,20.53,16.56,37.23,36.93,37.23,1.06,0,2.11-.05,3.14-.13l-2.73,7.51Z"></path>
  <path class="cls-1" d="m88.86,150.25c-.42,0-.85-.08-1.26-.24-9.73-3.76-15.97-13.31-15.53-23.78.47-11.24,12.67-30.3,14.06-32.44,1.05-1.62,3.22-2.08,4.84-1.03,1.62,1.05,2.08,3.22,1.03,4.84-3.49,5.36-12.6,21.01-12.93,28.91-.31,7.47,4.13,14.28,11.06,16.95,1.8.7,2.7,2.72,2,4.53-.54,1.39-1.86,2.24-3.27,2.24Z"></path>
  <path class="cls-2" d="m158.5,73.26c-.94,0-1.82.36-2.49,1.02-1.19,1.17-1.41,2.98-.53,4.39,11.81,19.13-3.53,35.65-21.28,54.77-14.55,15.67-29.58,31.88-29.58,51.16,0,30.91,30.16,53.8,50.44,61.64.44.17.93.27,1.29.24,1.98,0,3.58-1.6,3.58-3.55,0-1.13-.55-2.2-1.46-2.87l-.05-.04c-12.72-12.02-19.31-29.43-16.05-42.34l.42-1.66.94,1.44c3.33,5.13,7.98,8.07,12.74,8.07,3.07,0,5.99-1.18,8.68-3.51,7.76-6.72,4.61-14.16,2.31-19.6-2.88-6.8-5.86-13.84,3.83-24.23l1.19-1.28.11,1.74c.8,12.99,8.25,20.51,14.83,27.14,6.53,6.59,12.17,12.27,12.17,22.64s-9.5,24.06-18.89,31.75c-1.32,1.08-1.68,2.95-.87,4.45.62,1.14,1.82,1.84,3.11,1.84.38,0,.75-.06,1.1-.18,27-8.82,48.7-30.75,55.29-55.86,5.26-20.06.04-39.98-14.71-56.07-1.04-1.13-2.78-1.47-4.16-.8-1.4.68-2.2,2.22-1.96,3.75,1.35,8.46.07,15.95-3.42,20.04-1,1.18-2.65,2.59-4.8,2.59-1.07,0-2.15-.36-3.22-1.07-6.56-4.36-6.21-8.53-4.79-17.54,2.46-15.6,5.83-36.97-41.85-67.53-.57-.37-1.23-.56-1.91-.56Zm39.16,159.17l1.86-2.92c4.68-7.35,7.15-14.64,7.15-21.07,0-13.3-7.55-20.91-14.22-27.63-8.11-8.17-15.11-15.23-12.18-31.69.26-1.44-.41-2.91-1.66-3.66-1.23-.74-2.89-.64-4.01.24-22.87,17.82-17.35,30.85-13.7,39.48,2.56,6.04,3.26,8.3-.41,11.47-1.37,1.18-2.73,1.78-4.04,1.78-3.93,0-8.44-5.56-9.46-11.66-.23-1.38-1.26-2.5-2.62-2.85-1.37-.36-2.8.14-3.67,1.23-8.47,10.7-8.3,27.96.42,43.98l1.52,2.8-2.61-1.83c-8.03-5.61-14.8-12.27-19.6-19.26-5.79-8.44-8.73-17.27-8.73-26.24,0-16.49,14.07-31.65,27.68-46.32,14.61-15.74,29.72-32.02,27.12-50.15l-.25-1.78,1.44,1.07c32.13,23.77,29.59,39.88,27.55,52.82-1.35,8.6-2.76,17.49,7.87,24.56,2.22,1.47,4.69,2.25,7.15,2.25,3.78,0,7.41-1.81,10.2-5.08,2.63-3.08,4.42-7.33,5.2-12.29l.32-2.06,1.06,1.79c9,15.13,7.9,29.68,5.39,39.23-4.25,16.18-15.87,31.45-31.89,41.89l-2.9,1.89Z"></path>
</svg>
